<svg width="192" height="30" viewBox="0 0 192 30" fill="none" xmlns="http://www.w3.org/2000/svg">
<path d="M18.3356 0.0418418C21.6479 -0.180646 25.0239 0.48681 27.9859 1.98066C32.3811 4.14197 35.8845 8.01962 37.5088 12.5965C38.2414 14.6307 38.6236 16.7602 38.6236 18.9215V26.8993C38.6236 27.2171 38.6236 27.5668 38.5599 27.8846C38.3688 28.6792 37.7955 29.4102 37.0311 29.7599C36.4897 30.0141 35.8845 30.0459 35.3431 29.9506C34.1328 29.7281 33.1773 28.5839 33.1773 27.3443C33.1773 24.8651 33.1773 22.386 33.1773 19.9068C33.2092 19.2076 33.2092 18.4448 32.827 17.8409C32.2219 16.6966 30.6931 16.1563 29.5147 16.6331C28.4955 16.9827 27.763 18.0316 27.7311 19.1122C27.7311 21.6232 27.7311 24.1341 27.7311 26.645C27.7311 27.1218 27.763 27.5985 27.6037 28.0435C27.3489 28.9335 26.6164 29.6327 25.7246 29.887C24.5462 30.2048 23.2085 29.6963 22.6352 28.6156C22.2212 27.98 22.253 27.1854 22.2849 26.4543C22.2849 23.9434 22.2849 21.4642 22.2849 18.9533C22.253 17.6819 21.202 16.5377 19.9599 16.3788C19.1318 16.2517 18.2719 16.5377 17.6667 17.1098C17.1253 17.6184 16.8387 18.3494 16.8387 19.0804V26.359C16.8387 26.9629 16.9024 27.5986 16.6794 28.1707C16.3291 29.2195 15.2781 29.9823 14.1633 29.9506C13.0168 30.0141 11.902 29.2195 11.5517 28.1707C11.3606 27.6303 11.3924 27.09 11.3924 26.5179C11.3924 24.007 11.3924 21.496 11.3924 18.9851C11.3924 17.7455 10.4051 16.6013 9.19485 16.3788C8.08012 16.1563 6.86985 16.6966 6.29657 17.7137C6.07362 18.1269 5.94622 18.6037 5.94622 19.0804V27.2489C5.94622 28.0435 5.59588 28.8381 4.99074 29.3467C4.06712 30.1413 2.5702 30.2048 1.61472 29.4738C0.91404 28.997 0.5 28.1707 0.5 27.3125V19.0487C0.5 15.9338 1.29623 12.819 2.79315 10.0538C4.00342 7.79713 5.69143 5.79473 7.69793 4.20553C10.6599 1.72638 14.45 0.26433 18.3356 0.0418418Z" fill="#D5EAFF"/>
<path d="M92.7673 9.60882H88.6269C88.7861 6.71647 89.3913 4.11019 92.0348 2.45742C94.6782 0.836438 97.5765 0.45503 100.602 0.709302C102.227 0.836438 103.851 1.18607 105.348 1.88531C107.991 3.0931 109.297 5.15906 109.297 8.0514C109.297 13.1686 109.297 18.2859 109.297 23.4031C109.297 25.2783 109.679 25.6279 111.558 25.4372C111.749 25.4055 111.972 25.3737 112.163 25.3419C112.195 25.4372 112.195 25.5326 112.195 25.5962V28.711C110.698 29.2195 109.17 29.3785 107.673 28.9653C106.558 28.6474 105.857 27.8528 105.475 26.8039C105.284 26.2636 105.157 25.6915 104.997 25.0876C104.838 25.2783 104.711 25.4372 104.552 25.5962C101.271 28.9017 97.3854 30.3002 92.7991 29.1242C89.5505 28.2978 87.3211 25.3419 87.2255 21.9728C87.1937 20.8921 87.2892 19.8115 87.544 18.7626C88.1491 16.347 89.869 14.885 92.0348 13.8997C93.5635 13.2004 95.2197 13.0097 96.8759 12.7872C98.8187 12.5329 100.73 12.3105 102.672 12.0244C103.978 11.8337 104.647 11.1344 104.838 9.83131C105.252 7.19324 104.074 5.44512 101.526 4.80944C99.9971 4.42803 98.4365 4.36447 96.8759 4.65052C94.5827 5.06371 93.3087 6.36686 92.8628 8.62352C92.8947 8.94136 92.831 9.25919 92.7673 9.60882ZM104.966 14.6943C103.055 15.7113 101.207 15.9656 99.3282 16.2517C97.7676 16.5059 96.1752 16.7284 94.6464 17.2052C92.6399 17.8727 91.7163 19.5254 91.9074 21.7503C92.0666 23.5938 93.3087 25.0876 95.3152 25.4055C98.4046 25.914 101.144 25.0558 103.309 22.7674C103.946 22.0999 104.456 21.1464 104.583 20.2564C104.87 18.4765 104.838 16.6649 104.966 14.6943ZM163.982 20.034C163.887 20.4789 163.823 20.8603 163.727 21.21C161.944 26.645 158.313 28.9653 153.918 29.4738C146.306 30.3002 141.943 25.3419 140.828 20.0658C139.936 15.8703 140.063 11.7066 141.911 7.76535C143.662 4.04662 146.465 1.59925 150.637 0.868222C155.638 -0.0217298 162.708 2.45742 163.887 10.2445C164.205 12.2469 164.269 14.3129 164.46 16.4106H145.096C145.255 19.2712 145.701 21.941 147.803 24.007C148.663 24.8651 149.777 25.2783 150.988 25.5008C154.905 26.2001 158.154 24.3248 159.428 20.5425C159.555 20.1293 159.746 20.0022 160.16 20.034C161.402 20.034 162.645 20.034 163.982 20.034ZM145.255 12.7237H159.746C159.587 11.0391 159.3 9.48168 158.504 8.01962C157.74 6.62112 156.625 5.60404 155.096 5.0955C150.096 3.37916 144.936 7.35216 145.255 12.7237ZM174.397 28.5521H170.002V1.28142H174.174V5.0955C174.492 4.74587 174.684 4.52339 174.875 4.3009C177.869 0.900012 181.627 0.0100562 185.895 1.05893C188.856 1.78996 190.513 3.8877 191.086 6.81183C191.309 8.01962 191.468 9.2592 191.468 10.467C191.5 16.3152 191.5 22.1635 191.5 28.0117C191.5 28.1707 191.468 28.3296 191.468 28.5203H186.977V27.7893C186.977 22.3224 187.009 16.8556 186.946 11.3887C186.946 10.1809 186.754 8.94136 186.404 7.76535C185.831 5.85831 184.302 4.84122 182.296 4.74587C178.633 4.61873 175.735 6.55756 174.843 9.79952C174.524 10.9755 174.429 12.2151 174.429 13.4547C174.397 18.2541 174.397 23.0217 174.397 27.7575V28.5521ZM116.463 1.28142H120.699V12.8508C120.954 12.5965 121.113 12.4694 121.272 12.3105C124.744 8.78243 128.216 5.22263 131.687 1.69461C131.974 1.37677 132.26 1.24963 132.706 1.24963C134.331 1.28142 135.987 1.24963 137.77 1.24963C137.516 1.50391 137.388 1.66282 137.229 1.82174C134.171 4.873 131.146 7.95605 128.056 10.9755C127.706 11.3252 127.706 11.5476 127.929 11.9291C131.273 17.237 134.585 22.5449 137.898 27.8528C138.025 28.0435 138.121 28.2342 138.28 28.5203C138.057 28.5521 137.898 28.5521 137.707 28.5521C136.178 28.5521 134.681 28.5521 133.152 28.5521C132.738 28.5521 132.547 28.3931 132.324 28.0753C129.776 23.8163 127.228 19.5572 124.68 15.2664C124.553 15.0757 124.457 14.885 124.298 14.6625C123.12 15.8385 121.973 16.9509 120.826 18.1269C120.667 18.2858 120.635 18.5719 120.635 18.7944C120.635 21.7821 120.635 24.7698 120.635 27.7575V28.5203C119.807 28.5203 118.979 28.5203 118.183 28.5203C117.61 28.5203 116.813 28.6792 116.495 28.3614C116.208 28.1071 116.368 27.2807 116.368 26.7086V2.01245C116.463 1.85353 116.463 1.59926 116.463 1.28142ZM67.5745 1.24963C64.1348 4.65052 60.7906 7.98784 57.4146 11.3252C61.0454 17.1098 64.5807 22.7674 68.1797 28.5521C67.893 28.5521 67.7019 28.5839 67.5108 28.5839C66.0458 28.5839 64.5489 28.5839 63.0838 28.5839C62.6697 28.5839 62.415 28.4249 62.192 28.0753C59.6441 23.8163 57.0961 19.5572 54.5482 15.2664C54.4526 15.0757 54.3252 14.9167 54.166 14.6625C53.529 15.3299 52.9557 16.061 52.255 16.5695C50.8218 17.6502 50.4078 18.9851 50.5033 20.765C50.6626 23.0852 50.5352 25.4372 50.5352 27.7575V28.5203H46.3311V1.28142H50.5352V12.6601C50.6307 12.7236 50.7263 12.7872 50.79 12.8508C50.9174 12.6601 50.9811 12.4376 51.1085 12.2787C54.5482 8.75066 58.0198 5.25441 61.4595 1.69461C61.778 1.37677 62.0646 1.21785 62.5424 1.24963C63.9756 1.28142 65.4088 1.24963 66.842 1.24963C67.0649 1.24963 67.256 1.24963 67.5745 1.24963ZM75.9827 5.79474C78.1166 2.67991 80.3779 0.0736299 84.582 0.836445V5.50868C83.4673 5.57225 82.3526 5.54047 81.3016 5.76296C78.7218 6.30329 76.7153 8.6553 76.3012 11.5159C76.2375 12.088 76.1738 12.6601 76.1738 13.2322C76.1738 18.0951 76.1738 22.9581 76.1738 27.821V28.5839H71.8423V1.34498H75.9827C75.9827 2.77526 75.9827 4.20554 75.9827 5.79474Z" fill="#D5EAFF"/>
</svg>
