<svg width="197" height="36" viewBox="0 0 197 36" fill="none" xmlns="http://www.w3.org/2000/svg">
<mask id="path-1-inside-1_6_3" fill="white">
<path fill-rule="evenodd" clip-rule="evenodd" d="M4 0.5C2.09175 0.5 0.495596 1.83625 0.0961982 3.62408L32.4205 15.6688C32.7336 15.7855 32.9412 16.0844 32.9412 16.4185V20.8483C32.9412 21.4062 32.3846 21.7927 31.8618 21.5979L0 9.72553V13.9476L32.4205 26.0282C32.7336 26.1449 32.9412 26.4438 32.9412 26.7779V31.9345C32.9412 32.2686 32.7336 32.5675 32.4205 32.6841L24.8636 35.5H31C33.2091 35.5 35 33.7091 35 31.5V4.5C35 2.29086 33.2091 0.5 31 0.5H4ZM3.58993 35.4792L21.039 30.1209C21.7926 29.8895 21.7926 28.8228 21.039 28.5914L0 22.1307V31.5C0 33.5707 1.57343 35.2739 3.58993 35.4792Z"/>
</mask>
<g filter="url(#filter0_i_6_3)">
<path fill-rule="evenodd" clip-rule="evenodd" d="M4 0.5C2.09175 0.5 0.495596 1.83625 0.0961982 3.62408L32.4205 15.6688C32.7336 15.7855 32.9412 16.0844 32.9412 16.4185V20.8483C32.9412 21.4062 32.3846 21.7927 31.8618 21.5979L0 9.72553V13.9476L32.4205 26.0282C32.7336 26.1449 32.9412 26.4438 32.9412 26.7779V31.9345C32.9412 32.2686 32.7336 32.5675 32.4205 32.6841L24.8636 35.5H31C33.2091 35.5 35 33.7091 35 31.5V4.5C35 2.29086 33.2091 0.5 31 0.5H4ZM3.58993 35.4792L21.039 30.1209C21.7926 29.8895 21.7926 28.8228 21.039 28.5914L0 22.1307V31.5C0 33.5707 1.57343 35.2739 3.58993 35.4792Z" fill="url(#paint0_radial_6_3)"/>
</g>
<path d="M0.0961982 3.62408L-0.196585 3.55867L-0.253599 3.81389L-0.00855245 3.9052L0.0961982 3.62408ZM32.4205 15.6688L32.5253 15.3877V15.3877L32.4205 15.6688ZM31.8618 21.5979L31.9666 21.3168H31.9666L31.8618 21.5979ZM0 9.72553L0.104751 9.44441L-0.3 9.2936V9.72553H0ZM0 13.9476H-0.3V14.156L-0.104751 14.2288L0 13.9476ZM32.4205 26.0282L32.5253 25.7471L32.4205 26.0282ZM32.4205 32.6841L32.5253 32.9652L32.4205 32.6841ZM24.8636 35.5L24.7588 35.2189L24.8636 35.8V35.5ZM21.039 30.1209L21.1271 30.4077L21.039 30.1209ZM3.58993 35.4792L3.55954 35.7777L3.61995 35.7838L3.678 35.766L3.58993 35.4792ZM21.039 28.5914L21.1271 28.3046L21.039 28.5914ZM0 22.1307L0.088066 21.8439L-0.3 21.7248V22.1307H0ZM0.388981 3.68949C0.758411 2.0358 2.23524 0.8 4 0.8V0.2C1.94826 0.2 0.232781 1.63669 -0.196585 3.55867L0.388981 3.68949ZM-0.00855245 3.9052L32.3158 15.9499L32.5253 15.3877L0.200949 3.34296L-0.00855245 3.9052ZM32.3158 15.9499C32.5114 16.0228 32.6412 16.2097 32.6412 16.4185H33.2412C33.2412 15.9591 32.9557 15.5481 32.5253 15.3877L32.3158 15.9499ZM32.6412 16.4185V20.8483H33.2412V16.4185H32.6412ZM32.6412 20.8483C32.6412 21.197 32.2933 21.4386 31.9666 21.3168L31.7571 21.8791C32.4759 22.1469 33.2412 21.6153 33.2412 20.8483H32.6412ZM31.9666 21.3168L0.104751 9.44441L-0.104751 10.0067L31.7571 21.8791L31.9666 21.3168ZM0.3 13.9476V9.72553H-0.3V13.9476H0.3ZM32.5253 25.7471L0.104751 13.6665L-0.104751 14.2288L32.3158 26.3093L32.5253 25.7471ZM33.2412 26.7779C33.2412 26.3185 32.9557 25.9075 32.5253 25.7471L32.3158 26.3093C32.5114 26.3823 32.6412 26.5691 32.6412 26.7779H33.2412ZM33.2412 31.9345V26.7779H32.6412V31.9345H33.2412ZM32.5253 32.9652C32.9557 32.8048 33.2412 32.3938 33.2412 31.9345H32.6412C32.6412 32.1433 32.5114 32.3301 32.3158 32.403L32.5253 32.9652ZM24.9683 35.7811L32.5253 32.9652L32.3158 32.403L24.7588 35.2189L24.9683 35.7811ZM31 35.2H24.8636V35.8H31V35.2ZM34.7 31.5C34.7 33.5435 33.0435 35.2 31 35.2V35.8C33.3748 35.8 35.3 33.8748 35.3 31.5H34.7ZM34.7 4.5V31.5H35.3V4.5H34.7ZM31 0.8C33.0435 0.8 34.7 2.45655 34.7 4.5H35.3C35.3 2.12518 33.3748 0.2 31 0.2V0.8ZM4 0.8H31V0.2H4V0.8ZM20.951 29.8341L3.50187 35.1925L3.678 35.766L21.1271 30.4077L20.951 29.8341ZM20.951 28.8782C21.4219 29.0228 21.4219 29.6895 20.951 29.8341L21.1271 30.4077C22.1632 30.0895 22.1632 28.6228 21.1271 28.3046L20.951 28.8782ZM-0.088066 22.4175L20.951 28.8782L21.1271 28.3046L0.088066 21.8439L-0.088066 22.4175ZM0.3 31.5V22.1307H-0.3V31.5H0.3ZM3.62032 35.1808C1.75538 34.9909 0.3 33.4152 0.3 31.5H-0.3C-0.3 33.7262 1.39148 35.5569 3.55954 35.7777L3.62032 35.1808Z" fill="url(#paint1_linear_6_3)" style="mix-blend-mode:overlay" mask="url(#path-1-inside-1_6_3)"/>
<g filter="url(#filter1_i_6_3)">
<path d="M72.3004 13.8215C72.3004 15.1785 71.8745 16.3638 71.0228 17.3774C71.6768 18.1621 72.0798 19.0695 72.2319 20.0995C72.384 21.1294 72.2624 22.1267 71.8669 23.0913C71.4715 24.0559 70.8631 24.8243 70.0418 25.3965C69.2205 25.9523 68.3232 26.2302 67.3498 26.2302H47V8.5H67.3498C68.7186 8.5 69.8821 9.02316 70.8403 10.0695C71.8137 11.0995 72.3004 12.3501 72.3004 13.8215ZM67.6692 21.9877C68.0342 21.9877 68.346 21.8488 68.6046 21.5708C68.8631 21.2929 68.9924 20.9578 68.9924 20.5654C68.9924 20.173 68.8631 19.8379 68.6046 19.5599C68.346 19.282 68.0342 19.1431 67.6692 19.1431H50.9468V21.9877H67.6692ZM67.6692 15.5872C68.0342 15.5872 68.346 15.4482 68.6046 15.1703C68.8631 14.8924 68.9924 14.5572 68.9924 14.1649C68.9924 13.7725 68.8631 13.4455 68.6046 13.1839C68.346 12.906 68.0342 12.767 67.6692 12.767H50.9468V15.5872H67.6692Z" fill="url(#paint2_radial_6_3)"/>
<path d="M79.8289 26.2302H75.8821V8.5H79.8289V26.2302Z" fill="url(#paint3_radial_6_3)"/>
<path d="M107.479 12.767H97.4183V26.2302H93.4715V12.767H83.4106V8.5H107.479V12.767Z" fill="url(#paint4_radial_6_3)"/>
<path d="M111.061 8.5H115.008V21.9877H131.844V26.2302H111.061V8.5Z" fill="#C8E4FF"/>
<path d="M139.373 26.2302H135.426V8.5H139.373V26.2302Z" fill="#C8E4FF"/>
<path d="M157.966 15.7834C158.817 15.8978 159.471 15.9877 159.928 16.0531C160.384 16.1185 161.03 16.2166 161.867 16.3474C162.719 16.4619 163.388 16.5681 163.875 16.6662C164.361 16.7643 164.97 16.8951 165.7 17.0586C166.445 17.2057 167.038 17.361 167.479 17.5245C167.92 17.688 168.422 17.876 168.985 18.0886C169.548 18.2847 169.981 18.5054 170.285 18.7507C170.605 18.9796 170.909 19.2411 171.198 19.5354C171.502 19.8134 171.707 20.124 171.814 20.4673C171.92 20.7943 171.951 21.1458 171.905 21.5218C171.89 22.3229 171.532 23.0259 170.833 23.6308C170.118 24.2684 169.144 24.7916 167.913 25.2003C166.452 25.658 164.954 25.9768 163.418 26.1567C161.471 26.3856 159.586 26.5 157.76 26.5C156.011 26.5 154.217 26.361 152.376 26.0831C150.825 25.8706 149.266 25.4864 147.7 24.9305C146.285 24.391 145.183 23.7861 144.392 23.1158C144.011 22.7888 143.684 22.3065 143.411 21.6689C143.137 21.015 142.985 20.451 142.954 19.9768L146.262 20.0259L149.707 20.0504V20.0995C149.753 20.4918 149.875 20.8924 150.072 21.3011C150.392 21.9714 151.243 22.5272 152.627 22.9687C154.011 23.3937 155.738 23.6063 157.806 23.6063C159.875 23.6063 161.646 23.4019 163.122 22.9932C164.612 22.5681 165.418 22.045 165.54 21.4237C165.57 21.1948 165.433 20.9905 165.129 20.8106C164.825 20.6144 164.354 20.451 163.715 20.3202C163.076 20.173 162.399 20.0504 161.684 19.9523C160.985 19.8379 160.118 19.7153 159.084 19.5845C159.053 19.5845 159.03 19.5845 159.015 19.5845C159 19.5845 158.977 19.5845 158.947 19.5845C158.916 19.5681 158.886 19.5599 158.856 19.5599C154.445 18.9877 151.297 18.4074 149.411 17.8188C145.958 16.7398 144.217 15.1948 144.186 13.1839C144.171 13.0531 144.179 12.8651 144.209 12.6199H144.232C144.308 12.0313 144.62 11.5 145.167 11.0259C145.791 10.5027 146.681 10.0531 147.837 9.67711C149.251 9.26839 150.635 8.99046 151.989 8.84332C153.738 8.64714 155.502 8.54905 157.281 8.54905C158.802 8.54905 160.316 8.62262 161.821 8.76975C162.977 8.8842 164.125 9.08038 165.266 9.35831C166.118 9.5545 166.939 9.84877 167.73 10.2411C168.262 10.4864 168.817 10.846 169.395 11.3202C169.654 11.549 169.882 11.7943 170.08 12.0559C170.46 12.4319 170.741 13.3147 170.924 14.7044H164.422C164.407 14.688 164.392 14.6553 164.376 14.6063C164.361 14.5572 164.354 14.5245 164.354 14.5082C164.247 14.1812 164.118 13.9278 163.966 13.748C163.433 12.9796 162.62 12.4482 161.525 12.154C160.43 11.8597 159.023 11.7125 157.304 11.7125C155.51 11.7125 153.966 11.9169 152.673 12.3256C151.38 12.718 150.673 13.2003 150.551 13.7725C150.521 14.1812 151.046 14.5327 152.125 14.827C153.008 15.0722 154.954 15.391 157.966 15.7834Z" fill="#C8E4FF"/>
<path d="M197 12.767H186.939V26.2302H182.992V12.767H172.932V8.5H197V12.767Z" fill="#C8E4FF"/>
</g>
<defs>
<filter id="filter0_i_6_3" x="0" y="0.5" width="35" height="36" filterUnits="userSpaceOnUse" color-interpolation-filters="sRGB">
<feFlood flood-opacity="0" result="BackgroundImageFix"/>
<feBlend mode="normal" in="SourceGraphic" in2="BackgroundImageFix" result="shape"/>
<feColorMatrix in="SourceAlpha" type="matrix" values="0 0 0 0 0 0 0 0 0 0 0 0 0 0 0 0 0 0 127 0" result="hardAlpha"/>
<feOffset dy="1"/>
<feGaussianBlur stdDeviation="1"/>
<feComposite in2="hardAlpha" operator="arithmetic" k2="-1" k3="1"/>
<feColorMatrix type="matrix" values="0 0 0 0 1 0 0 0 0 1 0 0 0 0 1 0 0 0 0.32 0"/>
<feBlend mode="overlay" in2="shape" result="effect1_innerShadow_6_3"/>
</filter>
<filter id="filter1_i_6_3" x="47" y="8.5" width="150" height="19" filterUnits="userSpaceOnUse" color-interpolation-filters="sRGB">
<feFlood flood-opacity="0" result="BackgroundImageFix"/>
<feBlend mode="normal" in="SourceGraphic" in2="BackgroundImageFix" result="shape"/>
<feColorMatrix in="SourceAlpha" type="matrix" values="0 0 0 0 0 0 0 0 0 0 0 0 0 0 0 0 0 0 127 0" result="hardAlpha"/>
<feOffset dy="1"/>
<feGaussianBlur stdDeviation="2.5"/>
<feComposite in2="hardAlpha" operator="arithmetic" k2="-1" k3="1"/>
<feColorMatrix type="matrix" values="0 0 0 0 1 0 0 0 0 1 0 0 0 0 1 0 0 0 0.6 0"/>
<feBlend mode="overlay" in2="shape" result="effect1_innerShadow_6_3"/>
</filter>
<radialGradient id="paint0_radial_6_3" cx="0" cy="0" r="1" gradientUnits="userSpaceOnUse" gradientTransform="translate(26.25 8.7353) rotate(111.991) scale(28.8649)">
<stop stop-color="#67CFFE"/>
<stop offset="1" stop-color="#28BCFF"/>
</radialGradient>
<linearGradient id="paint1_linear_6_3" x1="17.5" y1="0.5" x2="17.5" y2="3.5" gradientUnits="userSpaceOnUse">
<stop stop-color="white" stop-opacity="0.48"/>
<stop offset="1" stop-color="white" stop-opacity="0"/>
</linearGradient>
<radialGradient id="paint2_radial_6_3" cx="0" cy="0" r="1" gradientUnits="userSpaceOnUse" gradientTransform="translate(84.5 10) rotate(90) scale(14.5 120.833)">
<stop stop-color="#5CCCFE"/>
<stop offset="1" stop-color="#29BDFF"/>
</radialGradient>
<radialGradient id="paint3_radial_6_3" cx="0" cy="0" r="1" gradientUnits="userSpaceOnUse" gradientTransform="translate(84.5 10) rotate(90) scale(14.5 120.833)">
<stop stop-color="#5CCCFE"/>
<stop offset="1" stop-color="#29BDFF"/>
</radialGradient>
<radialGradient id="paint4_radial_6_3" cx="0" cy="0" r="1" gradientUnits="userSpaceOnUse" gradientTransform="translate(84.5 10) rotate(90) scale(14.5 120.833)">
<stop stop-color="#5CCCFE"/>
<stop offset="1" stop-color="#29BDFF"/>
</radialGradient>
</defs>
</svg>
