<svg width="240" height="48" viewBox="0 0 240 48" fill="none" xmlns="http://www.w3.org/2000/svg">
<path d="M10.9007 24L5.44801 29.4209L0 24L5.44801 18.5791L10.9007 24ZM24.1202 10.837L33.4563 20.1313L38.9043 14.7104L24.1202 0L9.33608 14.7104L14.7841 20.1313L24.1202 10.837ZM42.7971 18.5791L37.349 24L42.7971 29.4209L48.2404 24L42.7971 18.5791ZM24.1202 37.163L14.7841 27.8734L9.33608 33.2896L24.1202 48L38.9043 33.2896L33.4563 27.8734L24.1202 37.163ZM24.1202 29.4209L29.5682 24L24.1202 18.5791L18.6722 24L24.1202 29.4209ZM81.6165 29.9414V29.8664C81.6165 26.3306 79.7314 24.5627 76.6633 23.3998C78.5485 22.3447 80.1414 20.6893 80.1414 17.721V17.646C80.1414 13.51 76.8141 10.837 71.4085 10.837H59.1364V37.163H71.7196C77.6907 37.163 81.6259 34.7573 81.6259 29.9414H81.6165ZM74.3588 18.687C74.3588 20.6424 72.7328 21.4724 70.1644 21.4724H64.8059V15.9156H70.5508C73.0062 15.9156 74.3682 16.891 74.3682 18.6213L74.3588 18.687ZM75.8339 29.2192C75.8339 31.1747 74.2834 32.075 71.7102 32.075H64.8059V26.2931H71.5311C74.519 26.2931 75.8433 27.3857 75.8433 29.1536L75.8339 29.2192ZM93.8462 37.163V10.837H88.0071V37.163H93.8462ZM125.135 37.163V10.837H119.371V27.0481L106.976 10.837H101.608V37.163H107.353V20.4267L120.163 37.163H125.135ZM157.375 37.163L146.017 10.6495H140.649L129.315 37.163H135.248L137.675 31.2591H148.864L151.281 37.163H157.375ZM146.795 26.143H139.744L143.26 17.6084L146.795 26.143ZM185.119 37.163V10.837H179.356V27.0481L166.956 10.837H161.593V37.163H167.333V20.4267L180.147 37.163H185.119ZM215.163 32.9144L211.464 29.1911C209.386 31.0668 207.533 32.272 204.508 32.272C199.974 32.272 196.835 28.5205 196.835 24V23.925C196.835 19.4138 200.049 15.728 204.508 15.728C207.152 15.728 209.221 16.8535 211.275 18.6964L214.966 14.4478C212.51 12.0422 209.527 10.3869 204.536 10.3869C196.411 10.3869 190.742 16.5158 190.742 23.9859V24.061C190.742 31.6202 196.524 37.5991 204.31 37.5991C209.404 37.6131 212.425 35.8077 215.145 32.9144H215.163ZM240 37.163V32.0047H225.616V26.4666H238.091V21.3083H225.616V15.9906H239.793V10.8324H219.834V37.1583L240 37.163Z" fill="#D5EAFF"/>
</svg>
