<svg width="240" height="29" viewBox="0 0 240 29" fill="none" xmlns="http://www.w3.org/2000/svg">
<path d="M213.077 24.8931C214.367 26.3229 221.454 33.1759 232.578 25.2225C240.621 18.6676 240.42 4.45614 239.648 0.164551C239.378 0.78912 230.036 22.1987 213.077 24.8931ZM239.646 0.160918C239.548 0.118329 229.2 -1.35806 218.969 5.53699C212.617 9.81859 211.777 16.0852 212.067 20.2609C226.938 18.5193 239.309 0.6519 239.646 0.160918Z" fill="#D5EAFF"/>
<path d="M239.646 0.160918C239.548 0.118329 229.2 -1.35806 218.969 5.53699C212.617 9.81859 211.777 16.0852 212.067 20.2609C226.938 18.5193 239.309 0.6519 239.646 0.160918Z" fill="#D5EAFF"/>
<path d="M16.5899 24.0573H5.00529V17.6007H16.5899C19.486 17.6007 20.9656 19.0502 20.9656 20.9279C20.9656 22.7397 19.5175 24.0573 16.5899 24.0573ZM16.2121 14.1419H5.00529V8.70648H16.2121C19.2656 8.70648 20.4619 9.8265 20.4619 11.3748C20.4619 12.7913 19.0768 14.1419 16.2121 14.1419ZM19.1712 15.789C24.0506 15.6242 25.8135 13.0877 25.8135 10.3206C25.8135 7.28998 23.5154 4.78641 17.912 4.78641H0V27.9115H18.4472C23.0432 27.9115 26.4745 25.9021 26.4745 21.5867C26.4745 18.5231 24.5543 15.9207 19.1712 15.789ZM32.3863 4.78641V27.9115H37.3916V4.78641H32.3863ZM57.6896 9.16766H68.7075V4.78641H41.6664V9.16766H52.6843V27.9115H57.6896V9.16766ZM72.9823 4.78641V27.9115H77.9876V18.8855H89.7296V15.0972H77.9876V8.77236H97.0644V4.78641H72.9823ZM101.119 4.78641V27.9115H106.124V4.78641H101.119ZM117.86 10.4194L134.45 27.9115H140.116V4.78641H135.174V21.4549L119.245 4.78641H112.886V27.9115H117.86V10.4194ZM146.878 4.78641V27.9115H171.369V24.0244H151.883V17.6666H163.562V14.076H151.883V8.77236H171.369V4.78641H146.878ZM204.888 4.78641H198.278L189.841 12.923L181.467 4.78641H174.762L186.536 16.1843L174.322 27.9115H180.932L189.778 19.3796L198.592 27.9115H205.329L193.083 16.1513L204.888 4.78641Z" fill="#D5EAFF"/>
</svg>
