<svg width="120" height="48" viewBox="0 0 120 48" fill="none" xmlns="http://www.w3.org/2000/svg">
<path d="M85 34.7233V5.10632H91V34.7233H85Z" fill="#D5EAFF"/>
<path d="M15.278 42.8936H2V13.2766H14.7397C20.9383 13.2766 24.5433 16.5221 24.5433 21.602C24.5433 24.8945 22.227 27.0111 20.6284 27.7167C22.5369 28.5476 25 30.4134 25 34.3801C25 39.899 20.9383 42.8936 15.278 42.8936ZM14.2667 18.4349H8.21489V25.2551H14.2667C16.8929 25.2551 18.361 23.8754 18.361 21.8372C18.361 19.7989 16.8929 18.4349 14.2667 18.4349ZM14.6582 30.4448H8.19858V37.7197H14.6582C17.4638 37.7197 18.8014 36.0577 18.8014 34.0509C18.8014 32.044 17.4638 30.4448 14.6582 30.4448Z" fill="#D5EAFF"/>
<path d="M42.5663 30.7427V42.8936H36.466V30.7427L27 13.2766H33.6667L39.5405 25.2081L45.3333 13.2766H52L42.5663 30.7427Z" fill="#D5EAFF"/>
<path d="M68.7007 42.8936H56V13.2766H68.1858C74.1149 13.2766 77.5631 16.5221 77.5631 21.602C77.5631 24.8945 75.3475 27.0111 73.8184 27.7167C75.644 28.5476 78 30.4134 78 34.3801C77.9844 39.899 74.1149 42.8936 68.7007 42.8936ZM67.7177 18.4349H61.9291V25.2551H67.7177C70.2298 25.2551 71.634 23.8754 71.634 21.8372C71.634 19.7989 70.2298 18.4349 67.7177 18.4349ZM68.0922 30.4448H61.9135V37.7197H68.0922C70.7759 37.7197 72.0553 36.0577 72.0553 34.0509C72.0553 32.044 70.7915 30.4448 68.0922 30.4448Z" fill="#D5EAFF"/>
<path d="M109.624 18.4349V42.8936H103.359V18.4349H95V13.2766H118V18.4349H109.624Z" fill="#D5EAFF"/>
</svg>
