<svg width="196" height="35" viewBox="0 0 196 35" fill="none" xmlns="http://www.w3.org/2000/svg">
<path d="M39.558 9.77133C32.4377 9.77133 26.8743 15.1746 26.8743 22.4079C26.8743 29.6412 32.2972 34.9982 39.558 34.9982C46.8187 34.9982 52.3359 29.5488 52.3359 22.3617C52.3359 15.2208 46.913 9.77133 39.558 9.77133ZM39.606 29.7853C35.5513 29.7853 32.5801 26.6373 32.5801 22.4097C32.5801 18.1341 35.5032 14.9878 39.558 14.9878C43.6607 14.9878 46.6301 18.1821 46.6301 22.4097C46.6301 26.6373 43.6607 29.7853 39.606 29.7853ZM53.8909 15.2688H57.4279V34.5305H63.0857V10.2409H53.8909V15.2688ZM12.6356 14.986C15.6068 14.986 17.9642 16.8179 18.8592 19.5427H24.8478C23.7625 13.7179 18.9535 9.77133 12.6837 9.77133C5.56345 9.77133 0 15.1746 0 22.4097C0 29.6448 5.4229 35 12.6837 35C18.8129 35 23.7163 31.0534 24.8016 25.1807H18.8592C18.0105 27.9054 15.6531 29.7853 12.6819 29.7853C8.57914 29.7853 5.70401 26.6373 5.70401 22.4097C5.70578 18.1341 8.53466 14.986 12.6356 14.986ZM161.392 20.0602L157.243 19.4502C155.262 19.1692 153.848 18.5111 153.848 16.9602C153.848 15.2688 155.688 14.424 158.186 14.424C160.92 14.424 162.666 15.5978 163.043 17.524H168.512C167.898 12.6383 164.126 9.77311 158.328 9.77311C152.339 9.77311 148.379 12.8269 148.379 17.1487C148.379 21.2821 150.973 23.6796 156.205 24.4301L160.354 25.0401C162.383 25.3212 163.514 26.1215 163.514 27.6244C163.514 29.5505 161.534 30.3491 158.799 30.3491C155.451 30.3491 153.565 28.9867 153.282 26.9201H147.719C148.238 31.6652 151.962 35 158.751 35C164.929 35 169.03 32.181 169.03 27.3416C169.03 23.0197 166.06 20.7645 161.392 20.0602ZM60.2568 0.234768C58.1823 0.234768 56.6255 1.73764 56.6255 3.80431C56.6255 5.87098 58.1805 7.37385 60.2568 7.37385C62.3313 7.37385 63.8881 5.87098 63.8881 3.80431C63.8881 1.73764 62.3313 0.234768 60.2568 0.234768ZM143.287 18.5573C143.287 13.2964 140.081 9.77311 133.292 9.77311C126.879 9.77311 123.296 13.0154 122.588 17.9953H128.2C128.482 16.0692 129.991 14.472 133.197 14.472C136.074 14.472 137.489 15.7401 137.489 17.291C137.489 19.3114 134.895 19.8272 131.688 20.1563C127.351 20.6258 121.976 22.1287 121.976 27.7667C121.976 32.1365 125.23 34.9538 130.416 34.9538C134.471 34.9538 137.017 33.2624 138.291 30.5839C138.48 32.9796 140.271 34.5305 142.771 34.5305H146.071V29.5043H143.289V18.5573H143.287ZM137.723 24.6649C137.723 27.9072 134.895 30.3029 131.452 30.3029C129.329 30.3029 127.538 29.41 127.538 27.5319C127.538 25.1362 130.415 24.4781 133.055 24.1971C135.601 23.9623 137.015 23.3985 137.723 22.3172V24.6649ZM107.689 9.77133C104.53 9.77133 101.889 11.0875 100.003 13.2946V0H94.3456V34.5305H99.909V31.3362C101.795 33.6376 104.483 35 107.689 35C114.479 35 119.619 29.6448 119.619 22.4097C119.619 15.1746 114.384 9.77133 107.689 9.77133ZM106.841 29.7853C102.786 29.7853 99.8148 26.6373 99.8148 22.4097C99.8148 18.1821 102.832 14.9878 106.887 14.9878C110.99 14.9878 113.865 18.1358 113.865 22.4097C113.865 26.6373 110.895 29.7853 106.841 29.7853ZM80.8133 9.77133C77.1357 9.77133 74.7303 11.2742 73.3158 13.3889V10.2409H67.7044V34.5287H73.3621V21.3283C73.3621 17.6165 75.7195 14.986 79.2085 14.986C82.4625 14.986 84.489 17.2875 84.489 20.624V34.5305H90.1468V20.2025C90.1485 14.0932 86.9905 9.77133 80.8133 9.77133ZM196 21.6111C196 14.6588 190.908 9.77311 184.071 9.77311C176.81 9.77311 171.481 15.2226 171.481 22.4097C171.481 29.9738 177.187 35 184.165 35C190.059 35 194.68 31.5229 195.858 26.591H189.963C189.115 28.752 187.04 29.9738 184.258 29.9738C180.626 29.9738 177.892 27.7186 177.28 23.772H195.998V21.6111H196ZM177.611 19.7312C178.507 16.3484 181.053 14.705 183.976 14.705C187.182 14.705 189.634 16.5369 190.2 19.7312H177.611Z" fill="#D5EAFF"/>
</svg>
