<svg width="240" height="46" viewBox="0 0 240 46" fill="none" xmlns="http://www.w3.org/2000/svg">
<path d="M19.96 0L0 11.5V34.5L19.96 46L39.92 34.5V11.5L19.96 0ZM19.96 0L0 11.5V34.5L19.96 46L39.92 34.5V11.5L19.96 0Z" fill="#D5EAFF"/>
<path d="M27.84 37.0156H25L21.6 33.901V32.3038L25.12 28.9496V23.6389L29.72 20.6441L34.96 24.5972L27.84 37.0156ZM16.08 28.6302L16.6 23.6389L14.88 19.1667H25.04L23.36 23.6389L23.84 28.6302H16.08ZM18.4 33.901L15 37.0556H12.12L4.96 24.5972L10.24 20.684L14.88 23.6389V28.9496L18.4 32.3038V33.901ZM12.08 9.94272H27.8L29.68 17.9288H10.24L12.08 9.94272ZM19.96 0L0 11.5V34.5L19.96 46L39.92 34.5V11.5L19.96 0Z" fill="#D5EAFF"/>
<path d="M62.32 33.6615C57.04 33.6615 53.16 29.5486 53.16 24.4774C53.16 19.4062 57.08 15.1736 62.36 15.1736C65.72 15.1736 67.8 16.4114 69.44 18.2083L66.92 20.9236C65.68 19.6059 64.36 18.7274 62.32 18.7274C59.36 18.7274 57.2 21.283 57.2 24.3976C57.2 27.592 59.4 30.1476 62.52 30.1476C64.44 30.1476 65.84 29.2292 67.12 27.9514L69.56 30.3871C67.8 32.2639 65.76 33.6615 62.32 33.6615Z" fill="#D5EAFF"/>
<path d="M77.28 33.6615H73.2V15.2135H77.28V19.526C78.4 16.8906 80.44 15.0538 83.56 15.2135V19.526H83.32C79.76 19.526 77.28 21.842 77.28 26.5538V33.6615Z" fill="#D5EAFF"/>
<path d="M104.88 15.1337L95.88 38.6128H91.76L93.72 33.6615L86 15.1337H90.36L95.6 28.8299L100.64 15.1337H104.88Z" fill="#D5EAFF"/>
<path d="M116.88 18.6875C114.12 18.6875 111.72 20.9236 111.72 24.3976C111.72 27.8715 114.16 30.1076 116.88 30.1076C119.68 30.1076 121.96 27.9114 121.96 24.3976C121.96 20.8837 119.64 18.6875 116.88 18.6875ZM117.8 33.6215C114.88 33.6215 113.04 32.1441 111.8 30.5069V38.6128H107.72V15.1337H111.8V18.4479C113.12 16.6111 114.96 15.1337 117.8 15.1337C122 15.1337 126.08 18.4479 126.08 24.3576C126.08 30.2673 122.04 33.6215 117.8 33.6215Z" fill="#D5EAFF"/>
<path d="M135 19.0069V27.7118C135 29.2691 135.8 29.908 137.2 29.908H138.8V33.5417H136C133.04 33.5417 130.92 32.2239 130.92 28.3507V19.0069H128.68V15.533H130.92V10.6615H135V15.533H138.8V19.0069H135Z" fill="#D5EAFF"/>
<path d="M151.64 18.6875C148.36 18.6875 146.28 21.243 146.28 24.3576C146.28 27.5121 148.52 30.1076 151.68 30.1076C154.96 30.1076 157.04 27.5521 157.04 24.4375C157.12 21.283 154.84 18.6875 151.64 18.6875ZM151.64 33.6615C146.24 33.6615 142.24 29.5486 142.24 24.4774C142.24 19.3663 146.28 15.1736 151.72 15.1736C157.16 15.1736 161.16 19.2864 161.16 24.3976C161.16 29.4288 157.16 33.6615 151.64 33.6615Z" fill="#D5EAFF"/>
<path d="M200.08 18.6875C196.8 18.6875 194.72 21.243 194.72 24.3576C194.72 27.5121 196.96 30.1076 200.12 30.1076C203.4 30.1076 205.48 27.5521 205.48 24.4375C205.52 21.283 203.28 18.6875 200.08 18.6875ZM200.08 33.6615C194.68 33.6615 190.68 29.5486 190.68 24.4774C190.68 19.3663 194.72 15.1736 200.16 15.1736C205.6 15.1736 209.6 19.2864 209.6 24.3976C209.6 29.4288 205.56 33.6615 200.08 33.6615Z" fill="#D5EAFF"/>
<path d="M233.76 15.1337C237.64 15.1337 240 17.5694 240 21.9219V33.6215H235.92V23.1597C235.92 20.3246 234.6 18.8472 232.32 18.8472C230.12 18.8472 228.52 20.4045 228.52 23.2396V33.6615H224.44V23.1597C224.44 20.4045 223.08 18.8472 220.84 18.8472C218.6 18.8472 217.04 20.5243 217.04 23.2795V33.6615H212.96V15.1736H217.04V18.2083C218.2 16.651 219.72 15.1736 222.44 15.1736C225 15.1736 226.76 16.4115 227.72 18.2882C229.2 16.3715 231.08 15.1337 233.76 15.1337Z" fill="#D5EAFF"/>
<path d="M164.72 29.7083L166.48 28.7101H166.72L168.52 29.7083L168.64 29.908V31.9844L168.52 32.184L166.72 33.1823H166.48L164.72 32.184L164.6 31.9844V29.908L164.72 29.7083Z" fill="#D5EAFF"/>
<path d="M181 33.6215C175.72 33.5017 171.92 29.309 172 24.2379C172.08 19.1667 176.08 15.0139 181.4 15.1337C184.76 15.2136 186.84 16.4913 188.44 18.3281L185.88 21.0035C184.68 19.6858 183.36 18.7274 181.32 18.6875C178.36 18.6476 176.16 21.1233 176.12 24.2778C176.04 27.4722 178.2 30.0677 181.32 30.1077C183.24 30.1476 184.68 29.2691 185.96 27.9913L188.36 30.467C186.56 32.3438 184.48 33.7014 181 33.6215Z" fill="#D5EAFF"/>
</svg>
