<svg width="197" height="35" viewBox="0 0 197 35" fill="none" xmlns="http://www.w3.org/2000/svg">
<mask id="path-1-inside-1_12_145" fill="white">
<path fill-rule="evenodd" clip-rule="evenodd" d="M4 0C2.09175 0 0.495596 1.33625 0.0961982 3.12408L32.4205 15.1688C32.7336 15.2855 32.9412 15.5844 32.9412 15.9185V20.3483C32.9412 20.9062 32.3846 21.2927 31.8618 21.0979L0 9.22553V13.4476L32.4205 25.5282C32.7336 25.6449 32.9412 25.9438 32.9412 26.2779V31.4345C32.9412 31.7686 32.7336 32.0675 32.4205 32.1841L24.8636 35H31C33.2091 35 35 33.2091 35 31V4C35 1.79086 33.2091 0 31 0H4ZM3.58993 34.9792L21.039 29.6209C21.7926 29.3895 21.7926 28.3228 21.039 28.0914L0 21.6307V31C0 33.0707 1.57343 34.7739 3.58993 34.9792Z"/>
</mask>
<path fill-rule="evenodd" clip-rule="evenodd" d="M4 0C2.09175 0 0.495596 1.33625 0.0961982 3.12408L32.4205 15.1688C32.7336 15.2855 32.9412 15.5844 32.9412 15.9185V20.3483C32.9412 20.9062 32.3846 21.2927 31.8618 21.0979L0 9.22553V13.4476L32.4205 25.5282C32.7336 25.6449 32.9412 25.9438 32.9412 26.2779V31.4345C32.9412 31.7686 32.7336 32.0675 32.4205 32.1841L24.8636 35H31C33.2091 35 35 33.2091 35 31V4C35 1.79086 33.2091 0 31 0H4ZM3.58993 34.9792L21.039 29.6209C21.7926 29.3895 21.7926 28.3228 21.039 28.0914L0 21.6307V31C0 33.0707 1.57343 34.7739 3.58993 34.9792Z" fill="#27314A"/>
<path d="M0.0961982 3.12408L-0.196585 3.05867L-0.253599 3.31389L-0.00855245 3.4052L0.0961982 3.12408ZM32.4205 15.1688L32.5253 14.8877V14.8877L32.4205 15.1688ZM31.8618 21.0979L31.9666 20.8168H31.9666L31.8618 21.0979ZM0 9.22553L0.104751 8.94441L-0.3 8.7936V9.22553H0ZM0 13.4476H-0.3V13.656L-0.104751 13.7288L0 13.4476ZM32.4205 25.5282L32.5253 25.2471L32.4205 25.5282ZM32.4205 32.1841L32.5253 32.4652L32.4205 32.1841ZM24.8636 35L24.7588 34.7189L24.8636 35.3V35ZM21.039 29.6209L21.1271 29.9077L21.039 29.6209ZM3.58993 34.9792L3.55954 35.2777L3.61995 35.2838L3.678 35.266L3.58993 34.9792ZM21.039 28.0914L21.1271 27.8046L21.039 28.0914ZM0 21.6307L0.088066 21.3439L-0.3 21.2248V21.6307H0ZM0.388981 3.18949C0.758411 1.5358 2.23524 0.3 4 0.3V-0.3C1.94826 -0.3 0.232781 1.13669 -0.196585 3.05867L0.388981 3.18949ZM-0.00855245 3.4052L32.3158 15.4499L32.5253 14.8877L0.200949 2.84296L-0.00855245 3.4052ZM32.3158 15.4499C32.5114 15.5228 32.6412 15.7097 32.6412 15.9185H33.2412C33.2412 15.4591 32.9557 15.0481 32.5253 14.8877L32.3158 15.4499ZM32.6412 15.9185V20.3483H33.2412V15.9185H32.6412ZM32.6412 20.3483C32.6412 20.697 32.2933 20.9386 31.9666 20.8168L31.7571 21.3791C32.4759 21.6469 33.2412 21.1153 33.2412 20.3483H32.6412ZM31.9666 20.8168L0.104751 8.94441L-0.104751 9.50665L31.7571 21.3791L31.9666 20.8168ZM0.3 13.4476V9.22553H-0.3V13.4476H0.3ZM32.5253 25.2471L0.104751 13.1665L-0.104751 13.7288L32.3158 25.8093L32.5253 25.2471ZM33.2412 26.2779C33.2412 25.8185 32.9557 25.4075 32.5253 25.2471L32.3158 25.8093C32.5114 25.8823 32.6412 26.0691 32.6412 26.2779H33.2412ZM33.2412 31.4345V26.2779H32.6412V31.4345H33.2412ZM32.5253 32.4652C32.9557 32.3048 33.2412 31.8938 33.2412 31.4345H32.6412C32.6412 31.6433 32.5114 31.8301 32.3158 31.903L32.5253 32.4652ZM24.9683 35.2811L32.5253 32.4652L32.3158 31.903L24.7588 34.7189L24.9683 35.2811ZM31 34.7H24.8636V35.3H31V34.7ZM34.7 31C34.7 33.0435 33.0435 34.7 31 34.7V35.3C33.3748 35.3 35.3 33.3748 35.3 31H34.7ZM34.7 4V31H35.3V4H34.7ZM31 0.3C33.0435 0.3 34.7 1.95655 34.7 4H35.3C35.3 1.62518 33.3748 -0.3 31 -0.3V0.3ZM4 0.3H31V-0.3H4V0.3ZM20.951 29.3341L3.50187 34.6925L3.678 35.266L21.1271 29.9077L20.951 29.3341ZM20.951 28.3782C21.4219 28.5228 21.4219 29.1895 20.951 29.3341L21.1271 29.9077C22.1632 29.5895 22.1632 28.1228 21.1271 27.8046L20.951 28.3782ZM-0.088066 21.9175L20.951 28.3782L21.1271 27.8046L0.088066 21.3439L-0.088066 21.9175ZM0.3 31V21.6307H-0.3V31H0.3ZM3.62032 34.6808C1.75538 34.4909 0.3 32.9152 0.3 31H-0.3C-0.3 33.2262 1.39148 35.0569 3.55954 35.2777L3.62032 34.6808Z" fill="url(#paint0_linear_12_145)" style="mix-blend-mode:overlay" mask="url(#path-1-inside-1_12_145)"/>
<g filter="url(#filter0_i_12_145)">
<path d="M72.3004 13.3215C72.3004 14.6785 71.8745 15.8638 71.0228 16.8774C71.6768 17.6621 72.0798 18.5695 72.2319 19.5995C72.384 20.6294 72.2624 21.6267 71.8669 22.5913C71.4715 23.5559 70.8631 24.3243 70.0418 24.8965C69.2205 25.4523 68.3232 25.7302 67.3498 25.7302H47V8H67.3498C68.7186 8 69.8821 8.52316 70.8403 9.56948C71.8137 10.5995 72.3004 11.8501 72.3004 13.3215ZM67.6692 21.4877C68.0342 21.4877 68.346 21.3488 68.6046 21.0708C68.8631 20.7929 68.9924 20.4578 68.9924 20.0654C68.9924 19.673 68.8631 19.3379 68.6046 19.0599C68.346 18.782 68.0342 18.6431 67.6692 18.6431H50.9468V21.4877H67.6692ZM67.6692 15.0872C68.0342 15.0872 68.346 14.9482 68.6046 14.6703C68.8631 14.3924 68.9924 14.0572 68.9924 13.6649C68.9924 13.2725 68.8631 12.9455 68.6046 12.6839C68.346 12.406 68.0342 12.267 67.6692 12.267H50.9468V15.0872H67.6692Z" fill="#27314A"/>
<path d="M79.8289 25.7302H75.8821V8H79.8289V25.7302Z" fill="#27314A"/>
<path d="M107.479 12.267H97.4183V25.7302H93.4715V12.267H83.4106V8H107.479V12.267Z" fill="#27314A"/>
<path d="M111.061 8H115.008V21.4877H131.844V25.7302H111.061V8Z" fill="#27314A"/>
<path d="M139.373 25.7302H135.426V8H139.373V25.7302Z" fill="#27314A"/>
<path d="M157.966 15.2834C158.817 15.3978 159.471 15.4877 159.928 15.5531C160.384 15.6185 161.03 15.7166 161.867 15.8474C162.719 15.9619 163.388 16.0681 163.875 16.1662C164.361 16.2643 164.97 16.3951 165.7 16.5586C166.445 16.7057 167.038 16.861 167.479 17.0245C167.92 17.188 168.422 17.376 168.985 17.5886C169.548 17.7847 169.981 18.0054 170.285 18.2507C170.605 18.4796 170.909 18.7411 171.198 19.0354C171.502 19.3134 171.707 19.624 171.814 19.9673C171.92 20.2943 171.951 20.6458 171.905 21.0218C171.89 21.8229 171.532 22.5259 170.833 23.1308C170.118 23.7684 169.144 24.2916 167.913 24.7003C166.452 25.158 164.954 25.4768 163.418 25.6567C161.471 25.8856 159.586 26 157.76 26C156.011 26 154.217 25.861 152.376 25.5831C150.825 25.3706 149.266 24.9864 147.7 24.4305C146.285 23.891 145.183 23.2861 144.392 22.6158C144.011 22.2888 143.684 21.8065 143.411 21.1689C143.137 20.515 142.985 19.951 142.954 19.4768L146.262 19.5259L149.707 19.5504V19.5995C149.753 19.9918 149.875 20.3924 150.072 20.8011C150.392 21.4714 151.243 22.0272 152.627 22.4687C154.011 22.8937 155.738 23.1063 157.806 23.1063C159.875 23.1063 161.646 22.9019 163.122 22.4932C164.612 22.0681 165.418 21.545 165.54 20.9237C165.57 20.6948 165.433 20.4905 165.129 20.3106C164.825 20.1144 164.354 19.951 163.715 19.8202C163.076 19.673 162.399 19.5504 161.684 19.4523C160.985 19.3379 160.118 19.2153 159.084 19.0845C159.053 19.0845 159.03 19.0845 159.015 19.0845C159 19.0845 158.977 19.0845 158.947 19.0845C158.916 19.0681 158.886 19.0599 158.856 19.0599C154.445 18.4877 151.297 17.9074 149.411 17.3188C145.958 16.2398 144.217 14.6948 144.186 12.6839C144.171 12.5531 144.179 12.3651 144.209 12.1199H144.232C144.308 11.5313 144.62 11 145.167 10.5259C145.791 10.0027 146.681 9.55313 147.837 9.17711C149.251 8.76839 150.635 8.49046 151.989 8.34332C153.738 8.14714 155.502 8.04905 157.281 8.04905C158.802 8.04905 160.316 8.12262 161.821 8.26975C162.977 8.3842 164.125 8.58038 165.266 8.85831C166.118 9.0545 166.939 9.34877 167.73 9.74114C168.262 9.98638 168.817 10.346 169.395 10.8202C169.654 11.049 169.882 11.2943 170.08 11.5559C170.46 11.9319 170.741 12.8147 170.924 14.2044H164.422C164.407 14.188 164.392 14.1553 164.376 14.1063C164.361 14.0572 164.354 14.0245 164.354 14.0082C164.247 13.6812 164.118 13.4278 163.966 13.248C163.433 12.4796 162.62 11.9482 161.525 11.654C160.43 11.3597 159.023 11.2125 157.304 11.2125C155.51 11.2125 153.966 11.4169 152.673 11.8256C151.38 12.218 150.673 12.7003 150.551 13.2725C150.521 13.6812 151.046 14.0327 152.125 14.327C153.008 14.5722 154.954 14.891 157.966 15.2834Z" fill="#27314A"/>
<path d="M197 12.267H186.939V25.7302H182.992V12.267H172.932V8H197V12.267Z" fill="#27314A"/>
</g>
<defs>
<filter id="filter0_i_12_145" x="47" y="8" width="150" height="19" filterUnits="userSpaceOnUse" color-interpolation-filters="sRGB">
<feFlood flood-opacity="0" result="BackgroundImageFix"/>
<feBlend mode="normal" in="SourceGraphic" in2="BackgroundImageFix" result="shape"/>
<feColorMatrix in="SourceAlpha" type="matrix" values="0 0 0 0 0 0 0 0 0 0 0 0 0 0 0 0 0 0 127 0" result="hardAlpha"/>
<feOffset dy="1"/>
<feGaussianBlur stdDeviation="2.5"/>
<feComposite in2="hardAlpha" operator="arithmetic" k2="-1" k3="1"/>
<feColorMatrix type="matrix" values="0 0 0 0 1 0 0 0 0 1 0 0 0 0 1 0 0 0 0.6 0"/>
<feBlend mode="overlay" in2="shape" result="effect1_innerShadow_12_145"/>
</filter>
<linearGradient id="paint0_linear_12_145" x1="17.5" y1="0" x2="17.5" y2="3" gradientUnits="userSpaceOnUse">
<stop stop-color="white" stop-opacity="0.48"/>
<stop offset="1" stop-color="white" stop-opacity="0"/>
</linearGradient>
</defs>
</svg>
