<svg width="35" height="36" viewBox="0 0 35 36" fill="none" xmlns="http://www.w3.org/2000/svg">
<mask id="path-1-inside-1_5_18" fill="white">
<path fill-rule="evenodd" clip-rule="evenodd" d="M4 0.5C2.09175 0.5 0.495596 1.83625 0.0961982 3.62408L32.4205 15.6688C32.7336 15.7855 32.9412 16.0844 32.9412 16.4185V20.8483C32.9412 21.4062 32.3846 21.7927 31.8618 21.5979L0 9.72553V13.9476L32.4205 26.0282C32.7336 26.1449 32.9412 26.4438 32.9412 26.7779V31.9345C32.9412 32.2686 32.7336 32.5675 32.4205 32.6841L24.8636 35.5H31C33.2091 35.5 35 33.7091 35 31.5V4.5C35 2.29086 33.2091 0.5 31 0.5H4ZM3.58993 35.4792L21.039 30.1209C21.7926 29.8895 21.7926 28.8228 21.039 28.5914L0 22.1307V31.5C0 33.5707 1.57343 35.2739 3.58993 35.4792Z"/>
</mask>
<g filter="url(#filter0_i_5_18)">
<path fill-rule="evenodd" clip-rule="evenodd" d="M4 0.5C2.09175 0.5 0.495596 1.83625 0.0961982 3.62408L32.4205 15.6688C32.7336 15.7855 32.9412 16.0844 32.9412 16.4185V20.8483C32.9412 21.4062 32.3846 21.7927 31.8618 21.5979L0 9.72553V13.9476L32.4205 26.0282C32.7336 26.1449 32.9412 26.4438 32.9412 26.7779V31.9345C32.9412 32.2686 32.7336 32.5675 32.4205 32.6841L24.8636 35.5H31C33.2091 35.5 35 33.7091 35 31.5V4.5C35 2.29086 33.2091 0.5 31 0.5H4ZM3.58993 35.4792L21.039 30.1209C21.7926 29.8895 21.7926 28.8228 21.039 28.5914L0 22.1307V31.5C0 33.5707 1.57343 35.2739 3.58993 35.4792Z" fill="url(#paint0_radial_5_18)"/>
</g>
<path d="M0.0961982 3.62408L-0.196585 3.55867L-0.253599 3.81389L-0.00855245 3.9052L0.0961982 3.62408ZM32.4205 15.6688L32.5253 15.3877V15.3877L32.4205 15.6688ZM31.8618 21.5979L31.9666 21.3168H31.9666L31.8618 21.5979ZM0 9.72553L0.104751 9.44441L-0.3 9.2936V9.72553H0ZM0 13.9476H-0.3V14.156L-0.104751 14.2288L0 13.9476ZM32.4205 26.0282L32.5253 25.7471L32.4205 26.0282ZM32.4205 32.6841L32.5253 32.9652L32.4205 32.6841ZM24.8636 35.5L24.7588 35.2189L24.8636 35.8V35.5ZM21.039 30.1209L21.1271 30.4077L21.039 30.1209ZM3.58993 35.4792L3.55954 35.7777L3.61995 35.7838L3.678 35.766L3.58993 35.4792ZM21.039 28.5914L21.1271 28.3046L21.039 28.5914ZM0 22.1307L0.088066 21.8439L-0.3 21.7248V22.1307H0ZM0.388981 3.68949C0.758411 2.0358 2.23524 0.8 4 0.8V0.2C1.94826 0.2 0.232781 1.63669 -0.196585 3.55867L0.388981 3.68949ZM-0.00855245 3.9052L32.3158 15.9499L32.5253 15.3877L0.200949 3.34296L-0.00855245 3.9052ZM32.3158 15.9499C32.5114 16.0228 32.6412 16.2097 32.6412 16.4185H33.2412C33.2412 15.9591 32.9557 15.5481 32.5253 15.3877L32.3158 15.9499ZM32.6412 16.4185V20.8483H33.2412V16.4185H32.6412ZM32.6412 20.8483C32.6412 21.197 32.2933 21.4386 31.9666 21.3168L31.7571 21.8791C32.4759 22.1469 33.2412 21.6153 33.2412 20.8483H32.6412ZM31.9666 21.3168L0.104751 9.44441L-0.104751 10.0067L31.7571 21.8791L31.9666 21.3168ZM0.3 13.9476V9.72553H-0.3V13.9476H0.3ZM32.5253 25.7471L0.104751 13.6665L-0.104751 14.2288L32.3158 26.3093L32.5253 25.7471ZM33.2412 26.7779C33.2412 26.3185 32.9557 25.9075 32.5253 25.7471L32.3158 26.3093C32.5114 26.3823 32.6412 26.5691 32.6412 26.7779H33.2412ZM33.2412 31.9345V26.7779H32.6412V31.9345H33.2412ZM32.5253 32.9652C32.9557 32.8048 33.2412 32.3938 33.2412 31.9345H32.6412C32.6412 32.1433 32.5114 32.3301 32.3158 32.403L32.5253 32.9652ZM24.9683 35.7811L32.5253 32.9652L32.3158 32.403L24.7588 35.2189L24.9683 35.7811ZM31 35.2H24.8636V35.8H31V35.2ZM34.7 31.5C34.7 33.5435 33.0435 35.2 31 35.2V35.8C33.3748 35.8 35.3 33.8748 35.3 31.5H34.7ZM34.7 4.5V31.5H35.3V4.5H34.7ZM31 0.8C33.0435 0.8 34.7 2.45655 34.7 4.5H35.3C35.3 2.12518 33.3748 0.2 31 0.2V0.8ZM4 0.8H31V0.2H4V0.8ZM20.951 29.8341L3.50187 35.1925L3.678 35.766L21.1271 30.4077L20.951 29.8341ZM20.951 28.8782C21.4219 29.0228 21.4219 29.6895 20.951 29.8341L21.1271 30.4077C22.1632 30.0895 22.1632 28.6228 21.1271 28.3046L20.951 28.8782ZM-0.088066 22.4175L20.951 28.8782L21.1271 28.3046L0.088066 21.8439L-0.088066 22.4175ZM0.3 31.5V22.1307H-0.3V31.5H0.3ZM3.62032 35.1808C1.75538 34.9909 0.3 33.4152 0.3 31.5H-0.3C-0.3 33.7262 1.39148 35.5569 3.55954 35.7777L3.62032 35.1808Z" fill="url(#paint1_linear_5_18)" style="mix-blend-mode:overlay" mask="url(#path-1-inside-1_5_18)"/>
<defs>
<filter id="filter0_i_5_18" x="0" y="0.5" width="35" height="36" filterUnits="userSpaceOnUse" color-interpolation-filters="sRGB">
<feFlood flood-opacity="0" result="BackgroundImageFix"/>
<feBlend mode="normal" in="SourceGraphic" in2="BackgroundImageFix" result="shape"/>
<feColorMatrix in="SourceAlpha" type="matrix" values="0 0 0 0 0 0 0 0 0 0 0 0 0 0 0 0 0 0 127 0" result="hardAlpha"/>
<feOffset dy="1"/>
<feGaussianBlur stdDeviation="1"/>
<feComposite in2="hardAlpha" operator="arithmetic" k2="-1" k3="1"/>
<feColorMatrix type="matrix" values="0 0 0 0 1 0 0 0 0 1 0 0 0 0 1 0 0 0 0.32 0"/>
<feBlend mode="overlay" in2="shape" result="effect1_innerShadow_5_18"/>
</filter>
<radialGradient id="paint0_radial_5_18" cx="0" cy="0" r="1" gradientUnits="userSpaceOnUse" gradientTransform="translate(26.25 8.7353) rotate(111.991) scale(28.8649)">
<stop stop-color="#67CFFE"/>
<stop offset="1" stop-color="#28BCFF"/>
</radialGradient>
<linearGradient id="paint1_linear_5_18" x1="17.5" y1="0.5" x2="17.5" y2="3.5" gradientUnits="userSpaceOnUse">
<stop stop-color="white" stop-opacity="0.48"/>
<stop offset="1" stop-color="white" stop-opacity="0"/>
</linearGradient>
</defs>
</svg>
