<svg width="30" height="30" viewBox="0 0 30 30" fill="none" xmlns="http://www.w3.org/2000/svg">
<mask id="mask0_12_170" style="mask-type:alpha" maskUnits="userSpaceOnUse" x="0" y="0" width="30" height="30">
<circle cx="14.6154" cy="14.6154" r="14.6154" fill="#D9D9D9"/>
</mask>
<g mask="url(#mask0_12_170)">
<path d="M14.6154 -4.61548C3.99439 -4.61548 -4.61539 3.9943 -4.61539 14.6153C-4.61539 25.2363 3.99439 33.8461 14.6154 33.8461C25.2364 33.8461 33.8462 25.2363 33.8462 14.6153C33.8462 3.9943 25.2364 -4.61548 14.6154 -4.61548ZM22.4379 11.1377C22.4459 11.302 22.4479 11.4663 22.4479 11.6265C22.4479 16.6345 18.6398 22.4058 11.6727 22.4058C9.61397 22.4092 7.59809 21.8179 5.86738 20.703C6.16186 20.7391 6.46434 20.7531 6.77083 20.7531C8.54567 20.7531 10.1783 20.1501 11.4744 19.1325C10.6845 19.117 9.91921 18.8555 9.28508 18.3844C8.65094 17.9132 8.17958 17.256 7.9367 16.5043C8.50391 16.6122 9.08824 16.5896 9.64543 16.4382C8.78816 16.2649 8.01722 15.8003 7.46335 15.1234C6.90949 14.4465 6.60678 13.5989 6.60657 12.7243V12.6782C7.11738 12.9606 7.70232 13.1329 8.32331 13.153C7.51963 12.618 6.95069 11.7961 6.73286 10.8555C6.51503 9.91496 6.66476 8.92669 7.15144 8.09285C8.10287 9.26273 9.28938 10.2198 10.6341 10.902C11.9789 11.5842 13.452 11.9764 14.9579 12.0532C14.7665 11.2405 14.8489 10.3873 15.1923 9.62632C15.5358 8.8653 16.121 8.23907 16.8571 7.84499C17.5932 7.4509 18.4388 7.31105 19.2626 7.44716C20.0864 7.58328 20.8421 7.98774 21.4123 8.59766C22.26 8.42994 23.0729 8.11901 23.8161 7.67819C23.5336 8.55586 22.9421 9.30114 22.1514 9.77555C22.9023 9.68511 23.6356 9.48323 24.3269 9.17659C23.8191 9.9376 23.1794 10.6017 22.4379 11.1377Z" fill="#3C4867"/>
</g>
</svg>
